<svg width="108" height="54" viewBox="0 0 108 54" fill="none" xmlns="http://www.w3.org/2000/svg">
<circle cx="26.9523" cy="27.5851" r="15.8273" fill="white"/>
<path d="M50.4333 14.1975C47.5314 9.08973 43.014 5.0699 37.5778 2.75818C32.1416 0.446456 26.0888 -0.0287185 20.353 1.40596C14.6173 2.84064 9.5173 6.10545 5.83986 10.6968C2.16241 15.2881 0.111831 20.9507 0.0044409 26.8113C-0.102949 32.6718 1.73882 38.4045 5.24563 43.125C8.75244 47.8456 13.7294 51.2917 19.4088 52.9317C25.0883 54.5717 31.1545 54.3146 36.6718 52.1999C42.1891 50.0852 46.8509 46.2306 49.9379 41.2305L45.8687 38.764C43.3281 42.879 39.4915 46.0513 34.9508 47.7917C30.4101 49.532 25.4177 49.7437 20.7436 48.3939C16.0695 47.0442 11.9734 44.2081 9.08736 40.3231C6.20129 36.4382 4.68553 31.7202 4.77391 26.8971C4.86229 22.0739 6.54991 17.4136 9.57641 13.635C12.6029 9.85637 16.8001 7.16946 21.5206 5.98873C26.2411 4.80801 31.2225 5.19907 35.6964 7.1016C40.1704 9.00412 43.8882 12.3124 46.2764 16.5161L50.4333 14.1975Z" fill="white"/>
<path fill-rule="evenodd" clip-rule="evenodd" d="M30.9034 27.8968C30.8039 27.6583 30.6113 27.539 30.3538 27.5317C30.088 27.5241 29.8952 27.6502 29.7646 27.8749C29.3895 28.5202 29.0124 29.1645 28.6413 29.8121C28.5926 29.897 28.5326 30.0797 28.417 30.0463C28.2902 30.0096 28.1311 29.6546 28.0676 29.5491C27.6621 28.876 27.3406 28.2502 26.9718 27.6139C26.5812 26.9402 26.1866 26.2686 25.7932 25.5965C25.1566 24.5089 24.4897 23.4374 23.8918 22.3294C23.4666 21.5417 22.305 21.4685 21.8579 22.273C21.6737 22.6043 21.4724 22.9263 21.2879 23.2574C21.1097 23.5771 20.9011 23.8787 20.7348 24.206C20.6077 24.4562 20.4476 24.6896 20.3062 24.9329C19.7775 25.8423 19.2519 26.7535 18.7224 27.6625C18.0605 28.7988 17.3938 29.9324 16.7337 31.0697C16.554 31.3794 16.641 31.7047 16.9386 31.9015C17.19 32.0677 17.5627 31.999 17.7663 31.7484C17.8676 31.6237 17.9283 31.4755 18.0083 31.3384C18.7327 30.0971 19.4625 28.8588 20.1868 27.6173C21.0467 26.1435 21.9039 24.668 22.7583 23.191C22.8401 23.0496 22.896 23.0826 22.9601 23.1925C23.3703 23.8951 23.7804 24.5979 24.1889 25.3015C24.8122 26.3753 25.431 27.4517 26.0591 28.5227L26.8738 29.9248C27.0566 30.25 27.2473 30.5708 27.4364 30.8925C27.6575 31.2688 27.9853 31.4734 28.4256 31.4933C28.6452 31.5059 28.8375 31.434 29.0234 31.3294C29.2955 31.1763 29.4339 30.9183 29.5813 30.663C30.0094 29.9215 30.443 29.1831 30.8736 28.443C30.9762 28.2667 30.9797 28.0796 30.9034 27.8968Z" fill="url(#paint0_linear_8656_2580)"/>
<path fill-rule="evenodd" clip-rule="evenodd" d="M35.1363 20.7787C35.1368 20.4641 34.9195 20.2493 34.6016 20.25C34.3102 20.2506 34.0758 20.4809 34.0704 20.7717C34.0652 21.0542 34.326 21.312 34.6112 21.3064C34.9054 21.3005 35.1359 21.0688 35.1363 20.7787ZM34.6201 19.4143C35.4764 19.4487 36.0288 20.0728 35.9833 20.8979C35.9494 21.5126 35.4897 22.0258 34.8553 22.1299C34.6195 22.1686 34.4831 22.2591 34.3642 22.4676C33.6435 23.7324 32.9066 24.9882 32.1712 26.2447C32.1041 26.3595 32.1032 26.4498 32.1723 26.5653C32.9727 27.9041 33.7678 29.246 34.5661 30.5859C34.6787 30.7748 34.7928 30.9622 34.8993 31.1549C35.0316 31.3942 34.8903 31.7577 34.6325 31.914C34.4028 32.0533 34.0384 31.999 33.8577 31.7845C33.6515 31.5398 33.5141 31.2497 33.3509 30.9773C32.6279 29.7705 31.9121 28.5595 31.1943 27.3496C30.4173 26.0397 29.6426 24.7283 28.8614 23.4208C28.7913 23.3034 28.7419 23.1063 28.6185 23.1017C28.5072 23.0975 28.4683 23.2985 28.402 23.4119C27.9886 24.1196 27.5778 24.8287 27.1621 25.535C26.9362 25.9188 26.567 26.0381 26.2449 25.8478C26.012 25.7101 25.8311 25.3433 26.0318 24.9997C26.5779 24.0647 27.1123 23.1228 27.6749 22.1978C28.086 21.5219 29.1471 21.521 29.5606 22.1917C30.1226 23.1031 30.6624 24.028 31.2113 24.9473C31.2239 24.9683 31.2321 24.9917 31.2441 25.013C31.3104 25.1303 31.3639 25.1647 31.4479 25.0153C31.6845 24.5942 31.9339 24.18 32.1775 23.7627C32.5782 23.076 32.9768 22.3881 33.3803 21.703C33.4387 21.6038 33.4547 21.5208 33.3941 21.4146C32.858 20.4747 33.6625 19.3962 34.6201 19.4143Z" fill="url(#paint1_linear_8656_2580)"/>
<path fill-rule="evenodd" clip-rule="evenodd" d="M22.5209 32.9717C22.8201 32.973 23.0707 32.7354 23.071 32.4499C23.0713 32.1628 22.8415 31.9468 22.5343 31.9453C22.2156 31.9438 21.9815 32.1609 21.9844 32.4552C21.9871 32.733 22.2337 32.9705 22.5209 32.9717ZM22.5286 33.8203C21.8971 33.8522 21.2985 33.3109 21.173 32.7386C20.9824 31.8691 21.6676 31.1525 22.3374 31.092C22.4546 31.0815 22.5091 31.0235 22.5611 30.9334C23.0283 30.1235 23.4979 29.3151 23.9676 28.5067C24.0842 28.306 24.2007 28.1051 24.3225 27.9075C24.4978 27.6233 24.8553 27.5213 25.1427 27.6688C25.4597 27.8315 25.5872 28.1519 25.4182 28.4717C25.1557 28.9682 24.8652 29.4501 24.5834 29.9365C24.2862 30.4493 23.9864 30.9605 23.6852 31.4711C23.6352 31.5557 23.6417 31.6242 23.694 31.7074C24.2437 32.5818 23.7142 33.5865 22.8044 33.7996C22.7158 33.8204 22.6207 33.8141 22.5286 33.8203Z" fill="url(#paint2_linear_8656_2580)"/>
<path d="M57.1428 37.3082C56.175 37.3082 55.3033 37.1359 54.5277 36.7912C53.7588 36.4399 53.1489 35.9228 52.6982 35.2401C52.254 34.5573 52.032 33.7154 52.032 32.7145C52.032 31.8527 52.1911 31.1402 52.5092 30.5767C52.8274 30.0133 53.2616 29.5625 53.8118 29.2244C54.362 28.8864 54.9818 28.6312 55.6712 28.4588C56.3672 28.2798 57.0864 28.1506 57.8288 28.071C58.7237 27.9782 59.4496 27.8954 60.0064 27.8224C60.5632 27.7429 60.9676 27.6236 61.2195 27.4645C61.478 27.2988 61.6072 27.0436 61.6072 26.6989V26.6392C61.6072 25.8902 61.3852 25.3101 60.9411 24.8991C60.4969 24.4882 59.8572 24.2827 59.022 24.2827C58.1404 24.2827 57.4411 24.4749 56.924 24.8594C56.4136 25.2438 56.0689 25.6979 55.8899 26.2216L52.5291 25.7443C52.7943 24.8163 53.2318 24.0407 53.8416 23.4176C54.4515 22.7879 55.1972 22.3172 56.0788 22.0057C56.9605 21.6875 57.9349 21.5284 59.0021 21.5284C59.7379 21.5284 60.4704 21.6146 61.1996 21.7869C61.9287 21.9593 62.5949 22.2443 63.1982 22.642C63.8014 23.0331 64.2853 23.5668 64.6499 24.2429C65.0211 24.919 65.2067 25.7642 65.2067 26.7784V37H61.7464V34.902H61.6271C61.4084 35.3262 61.1001 35.724 60.7024 36.0952C60.3113 36.4598 59.8175 36.7547 59.2209 36.9801C58.6309 37.1989 57.9382 37.3082 57.1428 37.3082ZM58.0774 34.6634C58.8 34.6634 59.4264 34.5208 59.9567 34.2358C60.487 33.9441 60.8946 33.5597 61.1797 33.0824C61.4714 32.6051 61.6172 32.0848 61.6172 31.5213V29.7216C61.5045 29.8144 61.3123 29.9006 61.0405 29.9801C60.7753 30.0597 60.477 30.1293 60.1456 30.1889C59.8142 30.2486 59.486 30.3016 59.1612 30.348C58.8364 30.3944 58.5547 30.4342 58.3161 30.4673C57.7791 30.5402 57.2985 30.6596 56.8743 30.8253C56.45 30.991 56.1153 31.223 55.87 31.5213C55.6248 31.813 55.5021 32.1908 55.5021 32.6548C55.5021 33.3177 55.7441 33.8182 56.228 34.1562C56.7119 34.4943 57.3284 34.6634 58.0774 34.6634ZM68.826 37V21.7273H72.3161V24.2727H72.4751C72.7536 23.3911 73.2308 22.7116 73.907 22.2344C74.5897 21.7505 75.3686 21.5085 76.2436 21.5085C76.4425 21.5085 76.6645 21.5185 76.9098 21.5384C77.1617 21.5516 77.3705 21.5748 77.5362 21.608V24.919C77.3838 24.866 77.1418 24.8196 76.8104 24.7798C76.4856 24.7334 76.1707 24.7102 75.8658 24.7102C75.2095 24.7102 74.6196 24.8527 74.0959 25.1378C73.5788 25.4162 73.1712 25.804 72.8729 26.3011C72.5746 26.7983 72.4254 27.3717 72.4254 28.0213V37H68.826ZM86.06 37.2983C84.5288 37.2983 83.2063 36.9801 82.0927 36.3438C80.9857 35.7008 80.1339 34.7926 79.5373 33.6193C78.9407 32.4394 78.6424 31.0507 78.6424 29.4531C78.6424 27.8821 78.9407 26.5033 79.5373 25.3168C80.1405 24.1236 80.9824 23.1955 82.0629 22.5327C83.1433 21.8632 84.4128 21.5284 85.8711 21.5284C86.8124 21.5284 87.7006 21.6809 88.5359 21.9858C89.3777 22.2841 90.1201 22.7481 90.7631 23.3778C91.4128 24.0076 91.9232 24.8097 92.2944 25.7841C92.6656 26.7519 92.8512 27.9053 92.8512 29.2443V30.348H80.3327V27.9219H89.4009C89.3943 27.2325 89.2451 26.6193 88.9535 26.0824C88.6618 25.5388 88.2541 25.1113 87.7305 24.7997C87.2134 24.4882 86.6102 24.3324 85.9208 24.3324C85.185 24.3324 84.5387 24.5114 83.9819 24.8693C83.4251 25.2206 82.9909 25.6847 82.6793 26.2614C82.3744 26.8314 82.2186 27.4579 82.212 28.1406V30.2585C82.212 31.1468 82.3744 31.9091 82.6992 32.5455C83.024 33.1752 83.4781 33.6591 84.0614 33.9972C84.6448 34.3286 85.3275 34.4943 86.1097 34.4943C86.6334 34.4943 87.1074 34.4214 87.5316 34.2756C87.9558 34.1231 88.3237 33.901 88.6353 33.6094C88.9469 33.3177 89.1822 32.9564 89.3413 32.5256L92.7021 32.9034C92.4899 33.7917 92.0856 34.5672 91.489 35.2301C90.899 35.8864 90.1433 36.3968 89.2219 36.7614C88.3005 37.1193 87.2466 37.2983 86.06 37.2983Z" fill="white"/>
<defs>
<linearGradient id="paint0_linear_8656_2580" x1="16.6406" y1="21.7031" x2="16.6406" y2="31.9922" gradientUnits="userSpaceOnUse">
<stop stop-color="#A2B1FC"/>
<stop offset="1" stop-color="#6979F8"/>
</linearGradient>
<linearGradient id="paint1_linear_8656_2580" x1="25.9453" y1="19.4141" x2="25.9453" y2="31.9908" gradientUnits="userSpaceOnUse">
<stop stop-color="#76EFC9"/>
<stop offset="1" stop-color="#41DB99"/>
</linearGradient>
<linearGradient id="paint2_linear_8656_2580" x1="21.1406" y1="27.6016" x2="21.1406" y2="33.8216" gradientUnits="userSpaceOnUse">
<stop stop-color="#A2B1FC"/>
<stop offset="1" stop-color="#6979F8"/>
</linearGradient>
</defs>
</svg>
