<svg width="50" height="28" viewBox="0 0 50 28" fill="none" xmlns="http://www.w3.org/2000/svg">
<circle cx="13.9986" cy="13.9986" r="8.25641" fill="url(#paint0_linear_1642_1087)"/>
<path d="M26.1999 7.13247C24.6924 4.45445 22.3456 2.34685 19.5215 1.13481C16.6974 -0.0772264 13.553 -0.326361 10.5733 0.425842C7.59361 1.17804 4.9442 2.88979 3.03378 5.29701C1.12336 7.70423 0.0580959 10.6732 0.00230703 13.7459C-0.0534818 16.8185 0.903309 19.8242 2.72508 22.2992C4.54685 24.7742 7.13238 26.5809 10.0828 27.4408C13.0332 28.3007 16.1846 28.1659 19.0508 27.0571C21.917 25.9484 24.3388 23.9274 25.9425 21.3059L23.0775 19.5532C21.8585 21.5458 20.0177 23.0819 17.8391 23.9247C15.6605 24.7674 13.2652 24.8699 11.0226 24.2163C8.77996 23.5627 6.81471 22.1894 5.42999 20.3082C4.04527 18.4269 3.31802 16.1423 3.36043 13.8068C3.40283 11.4713 4.21254 9.21462 5.66463 7.3849C7.11673 5.55519 9.13054 4.2541 11.3954 3.68235C13.6602 3.11061 16.0503 3.29997 18.1969 4.22124C20.3434 5.1425 22.1272 6.74447 23.2731 8.78003L26.1999 7.13247Z" fill="#26004C"/>
<path fill-rule="evenodd" clip-rule="evenodd" d="M16.2192 14.3964C16.1647 14.2644 16.0591 14.1984 15.9179 14.1943C15.7721 14.1901 15.6664 14.2599 15.5948 14.3843C15.3891 14.7414 15.1824 15.0979 14.9789 15.4563C14.9522 15.5033 14.9193 15.6044 14.8559 15.5859C14.7863 15.5656 14.6991 15.3691 14.6643 15.3108C14.4419 14.9383 14.2656 14.5919 14.0634 14.2398C13.8492 13.867 13.6329 13.4953 13.4171 13.1234C13.0681 12.5215 12.7024 11.9285 12.3745 11.3153C12.1414 10.8794 11.5044 10.8389 11.2592 11.2841C11.1583 11.4675 11.0479 11.6457 10.9467 11.8289C10.849 12.0058 10.7346 12.1727 10.6434 12.3539C10.5737 12.4923 10.486 12.6215 10.4084 12.7561C10.1185 13.2594 9.83029 13.7637 9.53994 14.2667C9.17699 14.8956 8.81142 15.5229 8.44948 16.1523C8.35092 16.3237 8.39867 16.5037 8.56184 16.6126C8.69969 16.7046 8.90404 16.6666 9.01569 16.5279C9.07126 16.4589 9.10454 16.3769 9.14838 16.301C9.54559 15.614 9.9458 14.9287 10.3429 14.2417C10.8144 13.4261 11.2845 12.6095 11.753 11.7921C11.7979 11.7139 11.8285 11.7322 11.8637 11.793C12.0886 12.1818 12.3134 12.5707 12.5374 12.9601C12.8792 13.5544 13.2185 14.1501 13.5629 14.7428L14.0097 15.5187C14.1099 15.6986 14.2144 15.8762 14.3181 16.0542C14.4394 16.2625 14.6191 16.3757 14.8606 16.3867C14.981 16.3937 15.0864 16.3539 15.1884 16.296C15.3376 16.2113 15.4135 16.0685 15.4943 15.9272C15.729 15.5168 15.9668 15.1082 16.2029 14.6986C16.2592 14.6011 16.2611 14.4975 16.2192 14.3964Z" fill="url(#paint1_linear_1642_1087)"/>
<path fill-rule="evenodd" clip-rule="evenodd" d="M18.5389 10.4601C18.5392 10.286 18.42 10.1672 18.2457 10.1675C18.0859 10.1679 17.9574 10.2953 17.9544 10.4562C17.9516 10.6126 18.0946 10.7552 18.251 10.7521C18.4123 10.7489 18.5387 10.6207 18.5389 10.4601ZM18.2567 9.70325C18.7263 9.72229 19.0292 10.0677 19.0042 10.5243C18.9856 10.8644 18.7336 11.1485 18.3857 11.2061C18.2564 11.2275 18.1816 11.2776 18.1164 11.393C17.7212 12.0929 17.3171 12.7879 16.9139 13.4833C16.8771 13.5468 16.8766 13.5968 16.9145 13.6607C17.3534 14.4016 17.7893 15.1442 18.2271 15.8857C18.2888 15.9902 18.3514 16.0939 18.4098 16.2006C18.4823 16.3331 18.4049 16.5342 18.2635 16.6207C18.1376 16.6978 17.9377 16.6677 17.8387 16.549C17.7256 16.4136 17.6502 16.2531 17.5607 16.1023C17.1643 15.4345 16.7718 14.7643 16.3782 14.0947C15.9521 13.3698 15.5274 12.6441 15.099 11.9205C15.0606 11.8555 15.0335 11.7464 14.9658 11.7439C14.9048 11.7416 14.8834 11.8528 14.8471 11.9156C14.6204 12.3072 14.3952 12.6996 14.1672 13.0905C14.0433 13.3029 13.8409 13.3689 13.6643 13.2636C13.5365 13.1874 13.4374 12.9844 13.5474 12.7943C13.8469 12.2769 14.1399 11.7556 14.4484 11.2437C14.6738 10.8696 15.2557 10.8691 15.4824 11.2403C15.7906 11.7447 16.0865 12.2565 16.3876 12.7653C16.3944 12.7769 16.3989 12.7898 16.4055 12.8016C16.4418 12.8665 16.4712 12.8856 16.5172 12.8029C16.647 12.5698 16.7838 12.3407 16.9173 12.1097C17.1371 11.7297 17.3556 11.349 17.5769 10.9699C17.6089 10.915 17.6177 10.869 17.5844 10.8102C17.2905 10.2901 17.7316 9.69323 18.2567 9.70325Z" fill="url(#paint2_linear_1642_1087)"/>
<path fill-rule="evenodd" clip-rule="evenodd" d="M11.6258 17.2002C11.7899 17.2009 11.9272 17.0694 11.9274 16.9114C11.9276 16.7525 11.8016 16.6329 11.6331 16.6322C11.4584 16.6313 11.33 16.7514 11.3316 16.9143C11.3331 17.0681 11.4683 17.1995 11.6258 17.2002ZM11.6283 17.6759C11.282 17.6936 10.9537 17.394 10.8849 17.0773C10.7804 16.5961 11.1562 16.1995 11.5234 16.166C11.5877 16.1602 11.6176 16.1281 11.6461 16.0782C11.9023 15.6301 12.1598 15.1827 12.4173 14.7353C12.4813 14.6242 12.5451 14.513 12.6119 14.4037C12.7081 14.2464 12.9041 14.19 13.0617 14.2716C13.2355 14.3616 13.3054 14.5389 13.2127 14.7159C13.0688 14.9907 12.9095 15.2574 12.755 15.5265C12.592 15.8103 12.4276 16.0933 12.2625 16.3758C12.2351 16.4226 12.2386 16.4605 12.2673 16.5066C12.5687 16.9905 12.2784 17.5465 11.7795 17.6644C11.7309 17.6759 11.6788 17.6724 11.6283 17.6759Z" fill="url(#paint3_linear_1642_1087)"/>
<path d="M28.5682 19.1761C28.0152 19.1761 27.517 19.0777 27.0739 18.8807C26.6345 18.6799 26.286 18.3845 26.0284 17.9943C25.7746 17.6042 25.6477 17.1231 25.6477 16.5511C25.6477 16.0587 25.7386 15.6515 25.9205 15.3295C26.1023 15.0076 26.3504 14.75 26.6648 14.5568C26.9792 14.3636 27.3333 14.2178 27.7273 14.1193C28.125 14.017 28.536 13.9432 28.9602 13.8977C29.4716 13.8447 29.8864 13.7973 30.2045 13.7557C30.5227 13.7102 30.7538 13.642 30.8977 13.5511C31.0455 13.4564 31.1193 13.3106 31.1193 13.1136V13.0795C31.1193 12.6515 30.9924 12.3201 30.7386 12.0852C30.4848 11.8504 30.1193 11.733 29.642 11.733C29.1383 11.733 28.7386 11.8428 28.4432 12.0625C28.1515 12.2822 27.9545 12.5417 27.8523 12.8409L25.9318 12.5682C26.0833 12.0379 26.3333 11.5947 26.6818 11.2386C27.0303 10.8788 27.4564 10.6098 27.9602 10.4318C28.464 10.25 29.0208 10.1591 29.6307 10.1591C30.0511 10.1591 30.4697 10.2083 30.8864 10.3068C31.303 10.4053 31.6837 10.5682 32.0284 10.7955C32.3731 11.0189 32.6496 11.3239 32.858 11.7102C33.0701 12.0966 33.1761 12.5795 33.1761 13.1591V19H31.1989V17.8011H31.1307C31.0057 18.0436 30.8295 18.2708 30.6023 18.483C30.3788 18.6913 30.0966 18.8598 29.7557 18.9886C29.4186 19.1136 29.0227 19.1761 28.5682 19.1761ZM29.1023 17.6648C29.5152 17.6648 29.8731 17.5833 30.1761 17.4205C30.4792 17.2538 30.7121 17.0341 30.875 16.7614C31.0417 16.4886 31.125 16.1913 31.125 15.8693V14.8409C31.0606 14.8939 30.9508 14.9432 30.7955 14.9886C30.6439 15.0341 30.4735 15.0739 30.2841 15.108C30.0947 15.142 29.9072 15.1723 29.7216 15.1989C29.536 15.2254 29.375 15.2481 29.2386 15.267C28.9318 15.3087 28.6572 15.3769 28.4148 15.4716C28.1723 15.5663 27.9811 15.6989 27.8409 15.8693C27.7008 16.036 27.6307 16.2519 27.6307 16.517C27.6307 16.8958 27.7689 17.1818 28.0455 17.375C28.322 17.5682 28.6742 17.6648 29.1023 17.6648ZM35.2443 19V10.2727H37.2386V11.7273H37.3295C37.4886 11.2235 37.7614 10.8352 38.1477 10.5625C38.5379 10.286 38.983 10.1477 39.483 10.1477C39.5966 10.1477 39.7235 10.1534 39.8636 10.1648C40.0076 10.1723 40.1269 10.1856 40.2216 10.2045V12.0966C40.1345 12.0663 39.9962 12.0398 39.8068 12.017C39.6212 11.9905 39.4413 11.9773 39.267 11.9773C38.892 11.9773 38.5549 12.0587 38.2557 12.2216C37.9602 12.3807 37.7273 12.6023 37.5568 12.8864C37.3864 13.1705 37.3011 13.4981 37.3011 13.8693V19H35.2443ZM45.0923 19.1705C44.2173 19.1705 43.4616 18.9886 42.8253 18.625C42.1927 18.2576 41.706 17.7386 41.3651 17.0682C41.0241 16.3939 40.8537 15.6004 40.8537 14.6875C40.8537 13.7898 41.0241 13.0019 41.3651 12.3239C41.7098 11.642 42.1908 11.1117 42.8082 10.733C43.4257 10.3504 44.151 10.1591 44.9844 10.1591C45.5223 10.1591 46.0298 10.2462 46.5071 10.4205C46.9882 10.5909 47.4124 10.8561 47.7798 11.2159C48.151 11.5758 48.4427 12.0341 48.6548 12.5909C48.867 13.1439 48.973 13.803 48.973 14.5682V15.1989H41.8196V13.8125H47.0014C46.9976 13.4186 46.9124 13.0682 46.7457 12.7614C46.5791 12.4508 46.3461 12.2064 46.0469 12.0284C45.7514 11.8504 45.4067 11.7614 45.0128 11.7614C44.5923 11.7614 44.223 11.8636 43.9048 12.0682C43.5866 12.2689 43.3385 12.5341 43.1605 12.8636C42.9863 13.1894 42.8973 13.5473 42.8935 13.9375V15.1477C42.8935 15.6553 42.9863 16.0909 43.1719 16.4545C43.3575 16.8144 43.617 17.0909 43.9503 17.2841C44.2836 17.4735 44.6738 17.5682 45.1207 17.5682C45.42 17.5682 45.6908 17.5265 45.9332 17.4432C46.1757 17.3561 46.3859 17.2292 46.5639 17.0625C46.742 16.8958 46.8764 16.6894 46.9673 16.4432L48.8878 16.6591C48.7666 17.1667 48.5355 17.6098 48.1946 17.9886C47.8575 18.3636 47.4257 18.6553 46.8991 18.8636C46.3726 19.0682 45.7704 19.1705 45.0923 19.1705Z" fill="url(#paint4_linear_1642_1087)"/>
<defs>
<linearGradient id="paint0_linear_1642_1087" x1="12.3473" y1="10.9712" x2="18.6772" y2="22.255" gradientUnits="userSpaceOnUse">
<stop stop-color="#320060"/>
<stop offset="1" stop-color="#1F0040"/>
</linearGradient>
<linearGradient id="paint1_linear_1642_1087" x1="8.39844" y1="10.9688" x2="8.39844" y2="16.6628" gradientUnits="userSpaceOnUse">
<stop stop-color="#A2B1FC"/>
<stop offset="1" stop-color="#6979F8"/>
</linearGradient>
<linearGradient id="paint2_linear_1642_1087" x1="13.5" y1="9.70312" x2="13.5" y2="16.6632" gradientUnits="userSpaceOnUse">
<stop stop-color="#76EFC9"/>
<stop offset="1" stop-color="#41DB99"/>
</linearGradient>
<linearGradient id="paint3_linear_1642_1087" x1="10.8672" y1="14.2344" x2="10.8672" y2="17.6766" gradientUnits="userSpaceOnUse">
<stop stop-color="#A2B1FC"/>
<stop offset="1" stop-color="#6979F8"/>
</linearGradient>
<linearGradient id="paint4_linear_1642_1087" x1="29.9107" y1="8.35417" x2="34.2904" y2="20.3906" gradientUnits="userSpaceOnUse">
<stop offset="0.141881" stop-color="#320060"/>
<stop offset="1" stop-color="#240049"/>
</linearGradient>
</defs>
</svg>
